<?xml version='1.0' encoding='utf-8'?>
<svg xmlns="http://www.w3.org/2000/svg" viewBox="0 0 793.7 1122.5">
 <g transform="scale(1.0965 .91202)">
  <path d="m432.1 984.68l-0.1013 0.2746h0.20288l-0.1016-0.2746m-0.0421-0.0735h0.084595l0.2103 0.5517h-0.077606l-0.0503-0.1415h-0.24872l-0.0503 0.1415h-0.078705l0.2106-0.5517"/>
  <path d="m432.42 985.06h0.078003v0.093872h-0.078003v-0.093872"/>
  <path d="m432.9 984.6h0.074707v0.51331c0 0.066528-0.012695 0.11481-0.038116 0.14484-0.025085 0.030151-0.065704 0.045105-0.12158 0.045105h-0.028503v-0.062805h0.023315c0.03299 0 0.056305-0.008972 0.069794-0.027649 0.013611-0.018555 0.020294-0.051636 0.020294-0.099426v-0.51331"/>
  <path d="m433.29 984.68l-0.1013 0.2746h0.20288l-0.1016-0.2746m-0.0421-0.0735h0.084595l0.2103 0.5517h-0.077606l-0.0503-0.1415h-0.24872l-0.0503 0.1415h-0.078705l0.2106-0.5517"/>
  <path d="m433.7 984.89v0.20215h0.11972c0.040222 0 0.069916-0.007996 0.089111-0.02478 0.019501-0.016846 0.029205-0.042297 0.029205-0.076538 0-0.034485-0.01001-0.059875-0.029205-0.076111-0.019196-0.016479-0.048889-0.02478-0.089111-0.02478h-0.11972m0-0.2269v0.16626h0.1105c0.036499 0 0.063599-0.006958 0.081299-0.020264 0.017975-0.013794 0.026978-0.034729 0.026978-0.062805 0-0.027832-0.009003-0.048706-0.026978-0.0625-0.0177-0.013794-0.0448-0.020691-0.081299-0.020691h-0.1105m-0.0746-0.0613h0.19067c0.056915 0 0.10077 0.011841 0.13156 0.035522 0.030792 0.023621 0.046204 0.057312 0.046204 0.10089 0 0.033813-0.007996 0.060608-0.02359 0.080566-0.015808 0.019897-0.03891 0.03241-0.069519 0.037354 0.036713 0.007996 0.065216 0.024353 0.085419 0.0495 0.020386 0.024902 0.030701 0.056091 0.030701 0.093445 0 0.049316-0.016815 0.087341-0.050323 0.1142-0.033478 0.026917-0.081177 0.040344-0.143 0.040344h-0.19809v-0.55176"/>
  <path d="m434.36 984.65c-0.054199 0-0.09729 0.020203-0.12933 0.060608-0.031799 0.040405-0.047699 0.095459-0.047699 0.16516 0 0.069519 0.0159 0.12445 0.047699 0.16486 0.032013 0.040405 0.075104 0.060608 0.12933 0.060608 0.054199 0 0.097107-0.020203 0.1286-0.060608 0.031799-0.040405 0.047699-0.095337 0.047699-0.16486 0-0.069702-0.0159-0.12476-0.047699-0.16516-0.031494-0.040405-0.074371-0.060608-0.1286-0.060608m0-0.0606c0.077393 0 0.13919 0.026001 0.18552 0.078003 0.046295 0.051697 0.069519 0.12122 0.069519 0.20844 0 0.086975-0.023224 0.15643-0.069519 0.20844-0.046295 0.051697-0.10815 0.077576-0.18552 0.077576-0.077606 0-0.13968-0.025879-0.18625-0.077576-0.046295-0.051697-0.069489-0.12122-0.069489-0.20844 0-0.087219 0.023193-0.15668 0.069489-0.20844 0.0466-0.052002 0.10864-0.078003 0.18625-0.078003"/>
  <path d="m434.99 984.9c0.015991 0.005005 0.031494 0.017029 0.0466 0.034729 0.015289 0.0177 0.030609 0.042053 0.045807 0.073181l0.0758 0.1508h-0.0802l-0.0706-0.1415c-0.018188-0.036987-0.03598-0.061462-0.053192-0.073486-0.016998-0.012085-0.040314-0.018127-0.069794-0.018127h-0.081299v0.23322h-0.074707v-0.55176h0.16852c0.06311 0 0.11011 0.013184 0.14117 0.03949 0.031006 0.026428 0.0466 0.066101 0.0466 0.11938 0 0.034729-0.007996 0.063599-0.024414 0.086487-0.015991 0.022888-0.039398 0.038818-0.07019 0.047729m-0.187-0.2318v0.19586h0.093903c0.03598 0 0.06308-0.007996 0.081299-0.02478 0.018494-0.016785 0.027679-0.041321 0.027679-0.073486 0-0.032288-0.009003-0.056519-0.027679-0.072815-0.018219-0.016479-0.045319-0.02478-0.081299-0.02478h-0.093903"/>
  <path d="m435.58 984.62v0.072815c-0.02829-0.013611-0.055084-0.023621-0.0802-0.030334-0.025085-0.006958-0.049408-0.01001-0.072784-0.01001-0.040619 0-0.072113 0.008057-0.094208 0.023621-0.021912 0.015808-0.032898 0.038208-0.032898 0.067322 0 0.024414 0.006989 0.042908 0.02179 0.055359 0.014801 0.012329 0.042603 0.022339 0.083496 0.029907l0.0451 9e-3c0.055695 0.010559 0.09671 0.029297 0.12308 0.056213 0.026581 0.02655 0.039886 0.062256 0.039886 0.10712 0 0.053528-0.018005 0.094055-0.053986 0.12158-0.035706 0.027649-0.088226 0.041443-0.15744 0.041443-0.026093 0-0.054016-0.002991-0.083496-0.009033-0.029297-0.005981-0.059692-0.014709-0.091309-0.026184v-0.076904c0.030304 0.017029 0.059998 0.029785 0.089111 0.038391 0.029083 0.009033 0.057587 0.012939 0.085693 0.012939 0.042603 0 0.0755-0.008057 0.098694-0.025146 0.023193-0.016785 0.034698-0.04071 0.034698-0.071655 0-0.0271-0.007996-0.04834-0.025085-0.063599-0.01651-0.01532-0.043701-0.026733-0.081696-0.034424l-0.0454-9e-3c-0.055695-0.011047-0.096008-0.028442-0.12085-0.052063-0.024902-0.023682-0.037292-0.056519-0.037292-0.098694 0-0.048828 0.01709-0.087219 0.051392-0.1153 0.034515-0.028137 0.081909-0.042114 0.14227-0.042114 0.025909 0 0.052216 0.002014 0.079102 0.007019 0.026917 0.005005 0.054321 0.011658 0.082397 0.021057"/>
  <path d="m435.73 984.6h0.074707v0.23322l0.2476-0.2332h0.0961l-0.2738 0.2572 0.2934 0.2946h-0.098297l-0.265-0.2657v0.26575h-0.074677v-0.55176"/>
  <path d="m436.4 984.68l-0.1013 0.2746h0.20288l-0.1016-0.2746m-0.0421-0.0735h0.084625l0.2103 0.5517h-0.077606l-0.0503-0.1415h-0.24872l-0.0503 0.1415h-0.078705l0.2106-0.5517"/>
 </g>
 <g stroke="#000" stroke-width=".3">
  <g fill-opacity=".5">
   <path d="m385.12 898.47l-10.781 0.125-9.3125 1.3438-10.188 2.2812-10 2.5-11.562 4.0625-12.906 6.8125-10.656 7.0312-14.312 11.125-5.6562 11.781 4.0625 4.5312 4.7812-5.6562 9.5312-8.1562 7.25-5.9062 9.5312-5.6562 8.8438-4.7812 19.031-7.7188 18.844-2.9375 12.656-0.8125v0.34375l12.625 0.4688 18.812 2.9375 19.062 7.7188 8.8438 4.7812 9.5312 5.6562 7.25 5.9062 9.5312 8.1562 4.75 5.6562 4.0938-4.5312-5.6562-11.781-14.312-11.125-10.656-7.0312-12.938-6.8125-11.562-4.0625-9.9688-2.5-10.219-2.2812-9.2812-1.3438h-9.0625v-0.125z"/>
   <path d="m533.33 1012.4l-69.37-137.59 3.1752 0.2268 69.143 137.48-2.9484-0.1134z"/>
   <path d="m477.97 941.88v5h46.438v-5h-46.438z"/>
   <path d="m451.57 889.38v5h46.438v-5h-46.438z"/>
   <path d="m460.37 906.88v5h46.438v-5h-46.438z"/>
   <path d="m469.17 924.38v5h46.438v-5h-46.438z"/>
   <path d="m486.77 959.38v5h46.438v-5h-46.438z"/>
   <path d="m495.04 976.88v5h46.438v-5h-46.438z"/>
   <path d="m503.13 994.38v5h46.438v-5h-46.438z"/>
  </g>
  <g fill-opacity=".502">
   <path d="m522.22 943.62l-28.469 34.312 3.8438 3.1875 28.469-34.281-3.8438-3.2188z"/>
   <path d="m539.82 978.62l-28.469 34.312 3.8438 3.1875 28.469-34.281-3.8438-3.2188z"/>
   <path d="m504.62 908.62l-28.469 34.312 3.8438 3.1875 28.469-34.281-3.8438-3.2188z"/>
   <path d="m487.02 873.62l-28.469 34.312 3.8438 3.1875 28.469-34.281-3.8438-3.2188z"/>
   <path d="m495.67 978.06l-1.0141 5.0912 64.079 34.355-2.6411-6.7615-60.423-32.685z"/>
   <path d="m478.07 943.06l-1.0141 5.0912 64.078 34.355-2.6411-6.7615-60.423-32.685z"/>
   <path d="m460.47 908.06l-1.0141 5.0912 64.079 34.355-2.6411-6.7615-60.423-32.685z"/>
   <path d="m442.87 873.06l-1.0141 5.0912 64.079 34.355-2.6411-6.7615-60.423-32.685z"/>
   <path d="m419.56 785.14l40.537 0.1622 1.2161 4.7023h-41.186l-0.5675-4.8644z"/>
   <path d="m425.88 820.17l45.402 0.1622 1.2161 4.7023h-46.05l-0.5675-4.8644z"/>
   <path d="m411.04 719.32l39.997 30.498 1.1003 4.0289-2.6291-0.0248-39.641-29.656-1.1159-4.9364 2.2892 0.0902v6.1e-5z"/>
   <path d="m413.07 749.23h37.943l1.2161 4.7023-38.591 0.1622-0.5675-4.8644z"/>
   <path d="m425.92 718.31l-2.4375 0.5312 7.0312 33.156v0.031189l8.1875 35.906h0.031189v0.031189l9.0625 35.188v0.03125h0.031219l10.281 34.062 2.4062-0.7188-10.281-34-0.0312-0.0625-9.0625-35.094v-0.03125l-8.1875-35.875-7.0312-33.156 1e-4 1e-4z"/>
   <path d="m440.86 719.07l-27.673 29.768 1.0424 5.1392 29.912-32.169-0.8299-2.5041-2.4514-0.2341z"/>
   <path d="m451.32 749.72l-32.132 34.957 0.9614 5.4634 32.506-35.331-0.8299-2.5041-0.5056-2.5852z"/>
   <path d="m413.39 749.39l46.482 36.011 1.3435 4.5154-1.2509 0.1373-44.586-33.385-1.1159-4.9363 2.2892 0.0902-3.1619-2.4322z"/>
   <path d="m419.5 785.46l52.001 36.01 1.54 3.333-3.813 0.137-48.922-33.188-0.722-4.936-0.084-1.356z"/>
   <path d="m459.4 785.39l-33.512 35.942 1.1584 4.8722 33.689-35.725-0.8299-2.5041-0.5056-2.5852z"/>
   <path d="m471.23 819.49l-36.468 33.38 2.3409 4.2809 35.463-32.572-0.8299-2.5041-0.5056-2.5852z"/>
   <path d="m426 819.36l56.927 33.843 0.95 3.727-4.404-0.06-52.667-31.217-0.722-4.937-0.084-1.356z"/>
   <path d="m423.28 709.11l2.6014-0.1239-3.7162-19.696-2.3536-0.1239 3.4685 19.944z"/>
   <path d="m383.02 709.35l2.602-0.124v-20.938l-2.603-0.124 2e-3 21.186h-0.001007z"/>
   <path d="m402.53 687.59l-19.537 21.613 2.943 0.7307 18.469-20.688-1.875-1.6562zm16.844 0.6562l-13.25 20.562 2.0938 1.3438 13.25-20.562-2.0938-1.3438zm15.188 0.3438l-10.797 20.898 2.8595-0.0541 10.156-19.688-2.2188-1.1562z"/>
   <path d="m386.25 687.66l-2.818 0.6421 21.63 21.327 1.75-1.7812-20.562-20.188zm36.469 0.4062l-1.8438 1.7188 18.844 20.062 1.8125-1.7188-18.812-20.062zm-17.125 0.125l-1.8125 1.7188 19.594 20.438 1.8125-1.7188-19.594-20.438z"/>
   <path d="m384.25 441.75l-25.656 0.0312v2.5l25.656-0.0312v-2.5zm0.0312 0v2.5l25.656 0.0312v-2.5l-25.656-0.0312zm-1.3438 31.562l-26.562 0.0625v2.5l26.562-0.0625v-2.5zm2.6562 0v2.5l26.562 0.0625v-2.5l-26.562-0.0625zm-31.219 30.938v2.5h27.156v-2.5h-27.156zm32.625 0v2.5h27.156v-2.5h-27.156zm-34.844 32.844v2.5l21.094 0.0625v0.0625l11-0.0312 11.031 0.0312v-0.0625l21.094-0.0625v-2.5l-32.125 0.0937-32.094-0.0937zm-2.7188 33.125v2.5h69.655v-2.5h-69.655zm-3.7188 33.656v2.5h77.093v-2.5h-77.093zm-4.5938 33.625v2.5h86.281v-2.5h-86.281z"/>
   <path d="m384.28 219.62v2l15.5 0.094v-2l-15.5-0.094zm15.875 20.281l-15.875 0.031v2l15.875-0.031v-2zm-15.875 20.719v2h16.844v-2h-16.844zm0 22.437v2h17.594v-2h-17.594zm0 23.126v2l19.094 0.031v-2l-19.094-0.031zm0 23.312v2l19.938 0.125 0.031-2-19.969-0.125zm0 25.219v2l21.313 0.187v-2l-21.313-0.187zm22.938 27.843l-22.938 0.032v2l22.938-0.032v-2zm-22.938 29.126v2l24.157 0.124v-2l-24.157-0.124z"/>
   <path d="m427.13 637.42l-27.254 33.112 1.5312 1.2812 26.75-32.406-1.0268-1.9875z"/>
   <path d="m422.03 604.5l-25.781 33.062-0.062 0.063-29.438 33 1.5 1.344 29.469-33.063 0.031-0.031 0.031-0.031 25.813-33.125-1.563-1.219z"/>
   <path d="m418.8 568.38l-26.268 36.311 0.2126 3.1044 26.066-36.109-0.0108-3.3062h3.1e-5z"/>
   <path d="m416.54 536.13l-26.881 34.746 0.6858 2.3286 26.346-34.141-0.1501-2.9338z"/>
   <path d="m414.16 503.24l-26.069 34.386 0.1813 3.1356 26.069-34.417-0.1813-3.1044z"/>
   <path d="m411.84 472.6l-24.905 32.27 0.1501 3.2365 25.037-32.674-0.2822-2.8329z"/>
   <path d="m409.65 440.79l-24.304 32.927 1.625 1.1875 23.094-31.312-0.4143-2.8017z"/>
   <path d="m407.94 410.63l-23.499 31.496 1.5938 1.1875 22.188-29.75-0.2822-2.9338z"/>
   <path d="m389.03 570.94l-13.964 33.406 2.2366 0.4197 13.441-32.752-1.7128-1.0743z"/>
   <path d="m385.38 411.97l-1.563 1.25 25.966 32.222-0.153-3.066-24.25-30.406zm0.25 30.781l-1.531 1.281 28.087 33.102-0.587-3.602-25.969-30.781zm0.875 31.406l-0.763 1.949 28.766 32.396-0.347-3.563-27.656-30.782zm1.113 30.131l-0.925 2.088 29.875 35.07-0.688-3.601-28.262-33.557zm-5.835-1.269l-1.021 5.444 6.118 29.882 1.676-0.762-6.773-34.564zm-0.933 34.476l-1.089 3.537 10.82 35.488-0.22-6.256-9.511-32.769zm8.155 0.318l-1.5 1.344 31.72 34.922-0.751-3.766-29.469-32.5zm-17.922 32.551l-1.812 0.844 21.734 34.355 1.812-0.812-13.579-34.068-8.155-0.319zm11.047-0.503l-0.53 2.384 33.427 35.347-0.146-3.191-32.751-34.54zm2.291 32.597l-0.196 2.8181 35.698 36.181-0.51-3.524-34.992-35.475zm3.343 33.826l-0.133 2.68 35.5 32.344 1.344-1.469-36.711-33.555z"/>
   <path d="m398.56 201.44l-14.938 18.969 1.3125 1.0625 14.938-18.969-1.3125-1.0625zm0.28125 18.781l-15.25 20.188 1.375 1.0312 15.219-20.188-1.3438-1.0312zm0.8125 20.094l-16.031 20.875 1.3438 1.0312 16.031-20.875-1.3438-1.0312zm0.6875 20.969l-16.438 22.219 1.375 1 16.438-22.188-1.375-1.0312zm1.125 22.188l-17.75 23.312 1.3438 1.0312 17.75-23.312-1.3438-1.0312zm1.0312 23l-18.969 23.5 1.3125 1.0625 18.969-23.5-1.3125-1.0625zm0.875 23.625l-19.75 25.312 1.3438 1.0625 19.75-25.344-1.3438-1.0312zm1.4062 24.906l-21.188 28.156 1.375 1.0312 21.188-28.156-1.375-1.0312zm0.3125 2.4375l-23.281 30.062 1.3438 1.0312 23.281-30.062-1.3438-1.0312z"/>
   <path d="m384.62 201.22l-1.3125 1.0625 15.656 19.469 1.3438-1.0625-15.688-19.469zm-0.0625 18.656l-1.3438 1.0625 16.344 20.344 1.3125-1.0625-16.312-20.344zm-0.0937 20.625l-1.2812 1.0938 17.688 21.062 0.3997-2.2347-16.806-19.922h6.1e-5zm0.4375 20.719l-1.3125 1.0625 17.938 22.156 1.3125-1.0625-17.938-22.156zm-0.2188 22.375l-1.3125 1.0938 19.188 23.156 1.3125-1.0625-19.188-23.188zm0 22.875l-1.2812 1.0938 20.406 23.938 1.2812-1.125-20.406-23.906zm0.0937 23.281l-1.3125 1.0625 21.438 25.688 1.2812-1.0938-21.406-25.656zm0.125 25.438l-1.3125 1.0625 22.906 28.281 1.3125-1.0625-22.906-28.281zm-0.125 27.688l-1.3125 1.0938 24.25 29.438 1.3125-1.0625-24.25-29.469z"/>
   <rect x="384.1" y="195.34" width="15.079" height="6.5798"/>
   <rect x="384.23" y="169.98" width="14.53" height="24.811"/>
  </g>
 </g>
 <g transform="matrix(-1.0965 0 0 .91202 768.52 0)">
  <path d="m432.1 984.68l-0.1013 0.2746h0.20288l-0.1016-0.2746m-0.0421-0.0735h0.084595l0.2103 0.5517h-0.077606l-0.0503-0.1415h-0.24872l-0.0503 0.1415h-0.078705l0.2106-0.5517"/>
  <path d="m432.42 985.06h0.078003v0.093872h-0.078003v-0.093872"/>
  <path d="m432.9 984.6h0.074707v0.51331c0 0.066528-0.012695 0.11481-0.038116 0.14484-0.025085 0.030151-0.065704 0.045105-0.12158 0.045105h-0.028503v-0.062805h0.023315c0.03299 0 0.056305-0.008972 0.069794-0.027649 0.013611-0.018555 0.020294-0.051636 0.020294-0.099426v-0.51331"/>
  <path d="m433.29 984.68l-0.1013 0.2746h0.20288l-0.1016-0.2746m-0.0421-0.0735h0.084595l0.2103 0.5517h-0.077606l-0.0503-0.1415h-0.24872l-0.0503 0.1415h-0.078705l0.2106-0.5517"/>
  <path d="m433.7 984.89v0.20215h0.11972c0.040222 0 0.069916-0.007996 0.089111-0.02478 0.019501-0.016846 0.029205-0.042297 0.029205-0.076538 0-0.034485-0.01001-0.059875-0.029205-0.076111-0.019196-0.016479-0.048889-0.02478-0.089111-0.02478h-0.11972m0-0.2269v0.16626h0.1105c0.036499 0 0.063599-0.006958 0.081299-0.020264 0.017975-0.013794 0.026978-0.034729 0.026978-0.062805 0-0.027832-0.009003-0.048706-0.026978-0.0625-0.0177-0.013794-0.0448-0.020691-0.081299-0.020691h-0.1105m-0.0746-0.0613h0.19067c0.056915 0 0.10077 0.011841 0.13156 0.035522 0.030792 0.023621 0.046204 0.057312 0.046204 0.10089 0 0.033813-0.007996 0.060608-0.02359 0.080566-0.015808 0.019897-0.03891 0.03241-0.069519 0.037354 0.036713 0.007996 0.065216 0.024353 0.085419 0.0495 0.020386 0.024902 0.030701 0.056091 0.030701 0.093445 0 0.049316-0.016815 0.087341-0.050323 0.1142-0.033478 0.026917-0.081177 0.040344-0.143 0.040344h-0.19809v-0.55176"/>
  <path d="m434.36 984.65c-0.054199 0-0.09729 0.020203-0.12933 0.060608-0.031799 0.040405-0.047699 0.095459-0.047699 0.16516 0 0.069519 0.0159 0.12445 0.047699 0.16486 0.032013 0.040405 0.075104 0.060608 0.12933 0.060608 0.054199 0 0.097107-0.020203 0.1286-0.060608 0.031799-0.040405 0.047699-0.095337 0.047699-0.16486 0-0.069702-0.0159-0.12476-0.047699-0.16516-0.031494-0.040405-0.074371-0.060608-0.1286-0.060608m0-0.0606c0.077393 0 0.13919 0.026001 0.18552 0.078003 0.046295 0.051697 0.069519 0.12122 0.069519 0.20844 0 0.086975-0.023224 0.15643-0.069519 0.20844-0.046295 0.051697-0.10815 0.077576-0.18552 0.077576-0.077606 0-0.13968-0.025879-0.18625-0.077576-0.046295-0.051697-0.069489-0.12122-0.069489-0.20844 0-0.087219 0.023193-0.15668 0.069489-0.20844 0.0466-0.052002 0.10864-0.078003 0.18625-0.078003"/>
  <path d="m434.99 984.9c0.015991 0.005005 0.031494 0.017029 0.0466 0.034729 0.015289 0.0177 0.030609 0.042053 0.045807 0.073181l0.0758 0.1508h-0.0802l-0.0706-0.1415c-0.018188-0.036987-0.03598-0.061462-0.053192-0.073486-0.016998-0.012085-0.040314-0.018127-0.069794-0.018127h-0.081299v0.23322h-0.074707v-0.55176h0.16852c0.06311 0 0.11011 0.013184 0.14117 0.03949 0.031006 0.026428 0.0466 0.066101 0.0466 0.11938 0 0.034729-0.007996 0.063599-0.024414 0.086487-0.015991 0.022888-0.039398 0.038818-0.07019 0.047729m-0.187-0.2318v0.19586h0.093903c0.03598 0 0.06308-0.007996 0.081299-0.02478 0.018494-0.016785 0.027679-0.041321 0.027679-0.073486 0-0.032288-0.009003-0.056519-0.027679-0.072815-0.018219-0.016479-0.045319-0.02478-0.081299-0.02478h-0.093903"/>
  <path d="m435.58 984.62v0.072815c-0.02829-0.013611-0.055084-0.023621-0.0802-0.030334-0.025085-0.006958-0.049408-0.01001-0.072784-0.01001-0.040619 0-0.072113 0.008057-0.094208 0.023621-0.021912 0.015808-0.032898 0.038208-0.032898 0.067322 0 0.024414 0.006989 0.042908 0.02179 0.055359 0.014801 0.012329 0.042603 0.022339 0.083496 0.029907l0.0451 9e-3c0.055695 0.010559 0.09671 0.029297 0.12308 0.056213 0.026581 0.02655 0.039886 0.062256 0.039886 0.10712 0 0.053528-0.018005 0.094055-0.053986 0.12158-0.035706 0.027649-0.088226 0.041443-0.15744 0.041443-0.026093 0-0.054016-0.002991-0.083496-0.009033-0.029297-0.005981-0.059692-0.014709-0.091309-0.026184v-0.076904c0.030304 0.017029 0.059998 0.029785 0.089111 0.038391 0.029083 0.009033 0.057587 0.012939 0.085693 0.012939 0.042603 0 0.0755-0.008057 0.098694-0.025146 0.023193-0.016785 0.034698-0.04071 0.034698-0.071655 0-0.0271-0.007996-0.04834-0.025085-0.063599-0.01651-0.01532-0.043701-0.026733-0.081696-0.034424l-0.0454-9e-3c-0.055695-0.011047-0.096008-0.028442-0.12085-0.052063-0.024902-0.023682-0.037292-0.056519-0.037292-0.098694 0-0.048828 0.01709-0.087219 0.051392-0.1153 0.034515-0.028137 0.081909-0.042114 0.14227-0.042114 0.025909 0 0.052216 0.002014 0.079102 0.007019 0.026917 0.005005 0.054321 0.011658 0.082397 0.021057"/>
  <path d="m435.73 984.6h0.074707v0.23322l0.2476-0.2332h0.0961l-0.2738 0.2572 0.2934 0.2946h-0.098297l-0.265-0.2657v0.26575h-0.074677v-0.55176"/>
  <path d="m436.4 984.68l-0.1013 0.2746h0.20288l-0.1016-0.2746m-0.0421-0.0735h0.084625l0.2103 0.5517h-0.077606l-0.0503-0.1415h-0.24872l-0.0503 0.1415h-0.078705l0.2106-0.5517"/>
 </g>
 <g stroke="#000" stroke-width=".3">
  <g fill-opacity=".5">
   <path d="m235.2 1012.4l69.37-137.59-3.1752 0.2268-69.143 137.48 2.9484-0.1134z"/>
   <path d="m290.56 941.88v5h-46.438v-5h46.438z"/>
   <path d="m316.96 889.38v5h-46.438v-5h46.438z"/>
   <path d="m308.16 906.88v5h-46.438v-5h46.438z"/>
   <path d="m299.36 924.38v5h-46.438v-5h46.438z"/>
   <path d="m281.76 959.38v5h-46.438v-5h46.438z"/>
   <path d="m273.49 976.88v5h-46.438v-5h46.438z"/>
   <path d="m265.39 994.38v5h-46.438v-5h46.438z"/>
  </g>
  <g fill-opacity=".502">
   <path d="m246.31 943.62l28.469 34.312-3.8438 3.1875-28.469-34.281 3.8438-3.2188z"/>
   <path d="m228.71 978.62l28.469 34.312-3.8437 3.1875-28.469-34.281 3.8438-3.2188z"/>
   <path d="m263.91 908.62l28.469 34.312-3.8438 3.1875-28.469-34.281 3.8438-3.2188z"/>
   <path d="m281.51 873.62l28.469 34.312-3.8438 3.1875-28.469-34.281 3.8438-3.2188z"/>
   <path d="m272.85 978.06l1.0141 5.0912-64.078 34.355 2.641-6.7615 60.423-32.685z"/>
   <path d="m290.45 943.06l1.0141 5.0912-64.078 34.355 2.641-6.7615 60.423-32.685z"/>
   <path d="m308.05 908.06l1.0141 5.0912-64.078 34.355 2.641-6.7615 60.423-32.685z"/>
   <path d="m325.65 873.06l1.0141 5.0912-64.079 34.355 2.6411-6.7615 60.423-32.685z"/>
   <path d="m348.97 785.14l-40.537 0.1622-1.2161 4.7023h41.186l0.5675-4.8644z"/>
   <path d="m342.64 820.17l-45.402 0.1622-1.2161 4.7023h46.05l0.5675-4.8644z"/>
   <path d="m357.48 719.32l-39.997 30.498-1.1003 4.0289 2.6291-0.0248 39.641-29.656 1.1159-4.9364-2.2892 0.0902v6.1e-5z"/>
   <path d="m355.45 749.23h-37.943l-1.2161 4.7023 38.591 0.1622 0.5675-4.8644z"/>
   <path d="m342.61 718.31l2.4375 0.5312-7.0312 33.156v0.031189l-8.1875 35.906h-0.031189v0.031189l-9.0625 35.188v0.03125h-0.031219l-10.281 34.062-2.4062-0.7188 10.281-34 0.0312-0.0625 9.0625-35.094v-0.03125l8.1875-35.875 7.0312-33.156-1e-4 1e-4z"/>
   <path d="m327.66 719.07l27.673 29.768-1.0424 5.1392-29.912-32.169 0.8299-2.5041 2.4514-0.2341z"/>
   <path d="m317.2 749.72l32.132 34.957-0.9614 5.4634-32.506-35.331 0.8299-2.5041 0.5056-2.5852z"/>
   <path d="m355.13 749.39l-46.482 36.011-1.3435 4.5154 1.2509 0.1373 44.587-33.385 1.1159-4.9363-2.2892 0.0902 3.1619-2.4322z"/>
   <path d="m349.02 785.46l-52.001 36.01-1.54 3.333 3.813 0.137 48.922-33.188 0.722-4.936 0.084-1.356z"/>
   <path d="m309.12 785.39l33.512 35.942-1.1584 4.8722-33.689-35.725 0.8299-2.5041 0.5056-2.5852z"/>
   <path d="m297.3 819.49l36.468 33.38-2.3409 4.2809-35.463-32.572 0.8299-2.5041 0.5056-2.5852z"/>
   <path d="m342.52 819.36l-56.928 33.843-0.949 3.727 4.404-0.06 52.667-31.217 0.722-4.937 0.084-1.356z"/>
   <path d="m345.25 709.11l-2.6014-0.1239 3.7162-19.696 2.3536-0.1239-3.4685 19.944z"/>
   <path d="m365.99 687.59l19.537 21.755-2.943 0.5883-18.469-20.688 1.875-1.6562zm-16.844 0.6562l13.25 20.562-2.0938 1.3438-13.25-20.562 2.0938-1.3438zm-15.188 0.3438l10.655 20.755-2.7171 0.0883-10.156-19.688 2.2188-1.1562z"/>
   <path d="m382.27 687.66l2.9604 0.4285-21.773 21.54-1.75-1.7812 20.562-20.188zm-36.469 0.4062l1.8438 1.7188-18.844 20.062-1.8125-1.7188 18.812-20.062zm17.125 0.125l1.8125 1.7188-19.594 20.438-1.8125-1.7188 19.594-20.438z"/>
   <path d="m384.24 219.62v2l-15.5 0.094v-2l15.5-0.094zm-15.875 20.281l15.875 0.031v2l-15.875-0.031v-2zm15.875 20.719v2h-16.844v-2h16.844zm0 22.437v2h-17.594v-2h17.594zm0 23.126v2l-19.094 0.031v-2l19.094-0.031zm0 23.312v2l-19.938 0.125-0.031-2 19.969-0.125zm0 25.219v2l-21.313 0.187v-2l21.313-0.187zm-22.938 27.843l22.938 0.032v2l-22.938-0.032v-2zm22.938 29.126v2l-24.157 0.124v-2l24.157-0.124z"/>
   <path d="m341.4 637.42l27.254 33.112-1.5312 1.2812-26.75-32.406 1.0268-1.9875z"/>
   <path d="m346.49 604.5l25.781 33.062 0.062 0.063 29.438 33-1.5 1.344-29.469-33.063-0.031-0.031-0.031-0.031-25.813-33.125 1.563-1.219z"/>
   <path d="m349.73 568.38l26.268 36.311-0.2126 3.1044-26.066-36.109 0.0108-3.3062h-3.1e-5z"/>
   <path d="m351.99 536.13l26.881 34.746-0.6858 2.3286-26.346-34.141 0.1501-2.9338z"/>
   <path d="m354.36 503.24l26.069 34.386-0.1813 3.1356-26.069-34.417 0.1813-3.1044z"/>
   <path d="m356.68 472.6l24.905 32.27-0.1501 3.2365-25.037-32.674 0.2822-2.8329z"/>
   <path d="m358.88 440.79l24.304 32.927-1.625 1.1875-23.094-31.312 0.4143-2.8017z"/>
   <path d="m360.59 410.63l23.499 31.496-1.5938 1.1875-22.188-29.75 0.2822-2.9338z"/>
   <path d="m376.3 604.72l20.875 33.688-1.7188 1.0625-20.844-33.688 1.6875-1.0625z"/>
   <path d="m383.15 411.97l1.5625 1.25-25.965 32.222 0.1526-3.066 24.25-30.406zm-0.25 30.781l1.5312 1.2812-28.087 33.102 0.5874-3.6017 25.969-30.781zm-0.875 31.406l0.7625 1.9491-28.766 32.396 0.3472-3.5633 27.656-30.781zm-1.1134 30.13l0.9259 2.0883-29.876 35.07 0.6883-3.6017 28.262-33.557zm6.0972-1.6613l0.89 5.1825-6.9034 30.798-1.9375-0.5 7.9509-35.48zm0.4094 35.262l1.875 0.6562-10.165 33.917-1.2203-2.0652 9.5106-32.508zm-7.8931-0.0743l1.5 1.3438-31.72 34.921 0.7508-3.765 29.469-32.5zm-1.2795 32.366l0.5295 2.3839-33.427 35.347 0.1454-3.191 32.752-34.54zm-2.2911 32.596l0.1956 2.8187-35.698 36.181 0.5106-3.5248 34.992-35.475zm16.144 1.6877l1.3944 1.2247-19.561 33.406-1.6562-1.0938 19.823-33.537v-6.1e-5zm-19.488 32.139l0.1331 2.6794-35.5 32.344-1.3438-1.4688 36.711-33.554z"/>
   <path d="m369.96 201.44l14.938 18.969-1.3125 1.0625-14.938-18.969 1.3125-1.0625zm-0.28125 18.781l15.25 20.188-1.375 1.0312-15.219-20.188 1.3438-1.0312zm-0.8125 20.094l16.031 20.875-1.3438 1.0312-16.031-20.875 1.3438-1.0312zm-0.6875 20.969l16.438 22.219-1.375 1-16.438-22.188 1.375-1.0312zm-1.125 22.188l17.75 23.312-1.3438 1.0312-17.75-23.312 1.3438-1.0312zm-1.0312 23l18.969 23.5-1.3125 1.0625-18.969-23.5 1.3125-1.0625zm-0.875 23.625l19.75 25.312-1.3438 1.0625-19.75-25.344 1.3438-1.0312zm-1.4062 24.906l21.188 28.156-1.375 1.0312-21.188-28.156 1.375-1.0312zm-0.3125 2.4375l23.281 30.062-1.3438 1.0312-23.281-30.062 1.3438-1.0312z"/>
   <path d="m383.9 201.22l1.3125 1.0625-15.656 19.469-1.3438-1.0625 15.688-19.469zm0.0625 18.656l1.3438 1.0625-16.344 20.344-1.3125-1.0625 16.312-20.344zm0.0937 20.625l1.2812 1.0938-17.688 21.062-0.6279-1.9305 17.034-20.226h-6.1e-5zm-0.4375 20.719l1.3125 1.0625-17.938 22.156-1.3125-1.0625 17.938-22.156zm0.2188 22.375l1.3125 1.0938-19.188 23.156-1.3125-1.0625 19.188-23.188zm0 22.875l1.2812 1.0938-20.406 23.938-1.2812-1.125 20.406-23.906zm-0.0937 23.281l1.3125 1.0625-21.438 25.688-1.2812-1.0938 21.406-25.656zm-0.125 25.438l1.3125 1.0625-22.906 28.281-1.3125-1.0625 22.906-28.281zm0.125 27.688l1.3125 1.0938-24.25 29.438-1.3125-1.0625 24.25-29.469z"/>
   <rect transform="scale(-1 1)" x="-384.43" y="195.34" width="15.079" height="6.5798"/>
   <rect transform="scale(-1 1)" x="-384.29" y="169.98" width="14.53" height="24.811"/>
  </g>
 </g>
 <g stroke="#000">
  <g stroke-width=".3">
   <path d="m330.16 709.44l9.219 9.25h1.187l-9.218-9.25h-1.188zm4.782 0l9.25 9.25 1.156-0.032-9.219-9.218h-1.187zm4.812 0l9.188 9.218h1.187l-9.187-9.218h-1.188zm4.781 0l9.219 9.218h1.188l-9.188-9.218h-1.219zm4.813 0l9.187 9.218h1.219l-9.219-9.218h-1.187zm4.812 0l9.188 9.218h1.187l-9.187-9.218h-1.188zm4.813 0.031l9.187 9.187h1.188l-9.188-9.187h-1.187zm4.812 0l9.157 9.187h1.187l-9.156-9.187h-1.188zm4.781 0l9.188 9.187h1.188l-9.157-9.187h-1.219zm4.813 0l9.156 9.187h1.219l-9.188-9.187h-1.187zm4.813 0l9.156 9.156h1.156l-9.125-9.156h-1.187zm4.781 0l9.156 9.156h1.187l-9.156-9.156h-1.187zm4.812 0l9.125 9.156h1.188l-9.125-9.156h-1.188zm4.781 0l9.157 9.156h1.187l-9.125-9.156h-1.219zm4.813 0l9.125 9.156h1.219l-9.157-9.156h-1.187zm4.813 0l9.124 9.156h1.188l-9.125-9.156h-1.187zm4.781 0l9.156 9.156h1.187l-9.156-9.156h-1.187zm4.812 0l9.125 9.156h1.188l-9.125-9.125-1.188-0.031zm4.813 0.031l9.094 9.094h1.187l-9.063-9.094h-1.218zm4.812 0l9.063 9.094h1.219l-9.094-9.094h-1.188zm4.813 0l9.062 9.094h1.188l-9.063-9.094h-1.187zm4.781 0l9.094 9.094h1.187l-9.093-9.094h-1.188zm4.812 0l7.157 7.187-0.407-1.593-5.562-5.594h-1.188zm4.782 0l0.781 0.781-0.187-0.781h-0.59399zm-113.44 0.562l-0.25 0.938 7.656 7.687h1.219l-8.625-8.625zm-1.031 3.782l-0.25 0.937 3.906 3.906h1.188l-4.844-4.843zm-1 3.812l-0.25 0.938 0.094 0.093h1.187l-1.031-1.031z"/>
   <path d="m327.31 709.44l-0.156 0.593 0.594-0.593h-0.43799zm4.032 0l-5.5 5.5-0.438 1.656 7.156-7.156h-1.218zm4.812 0l-9.25 9.25h1.219l9.219-9.25h-1.188zm4.813 0l-9.281 9.25h1.218l9.25-9.25h-1.187zm4.781 0l-9.25 9.25h1.219l9.219-9.25h-1.188zm4.812 0l-9.281 9.25h1.25l9.219-9.25h-1.188zm4.782 0l-9.219 9.218h1.219l9.187-9.187-1.187-0.031zm4.781 0.031l-9.187 9.187h1.218l9.156-9.187h-1.187zm4.813 0l-9.219 9.187h1.219l9.187-9.187h-1.187zm4.781 0l-9.188 9.187h1.219l9.156-9.187h-1.187zm4.812 0l-9.219 9.187h1.25l9.157-9.187h-1.188zm4.781 0l-9.187 9.187h1.219l9.187-9.187h-1.219zm4.813 0l-9.187 9.187h1.218l9.156-9.187h-1.187zm4.813 0l-9.219 9.187h1.219l9.187-9.187h-1.187zm4.781 0l-9.157 9.156h1.188l9.156-9.156h-1.187zm4.812 0l-9.187 9.156h1.25l9.125-9.156h-1.188zm4.781 0l-9.156 9.156h1.219l9.156-9.156h-1.219zm4.813 0l-9.156 9.156h1.219l9.124-9.156h-1.187zm4.781 0.031l-9.156 9.125h1.219l9.125-9.125h-1.188zm4.782 0l-9.126 9.125h1.219l9.094-9.125h-1.187zm4.812 0l-9.156 9.125h1.25l9.094-9.125h-1.188zm4.781 0l-9.125 9.125h1.219l9.125-9.125h-1.219zm4.813 0l-9.125 9.125 1.219-0.031 9.093-9.094h-1.187zm4.812 0l-9.125 9.094h1.219l9.094-9.094h-1.188zm4.375 0.406l-8.687 8.688h1.218l7.719-7.75-0.25-0.938zm0.969 3.844l-4.875 4.844h1.25l3.844-3.875-0.219-0.969zm0.938 3.844l-1 1h1.249v-0.031982l-0.25-0.968h9.77e-4z"/>
   <path d="m364.38 687.62l-32.063 0.344h-0.78101l-0.187 0.75-7.375 29.812-8.344 32.719-8.656 34.938v0.031006l-5.094 17.875-0.031 0.062-18.594 52.531-0.469 1.344h1.407l48.437 0.313h0.75l0.219-0.719 9.937-34.656 0.031-0.031v-0.062988l6.407-35.281 6.093-35.938 5.032-31.906h46.344l5.031 31.906 6.093 35.938 6.407 35.281v0.062988l0.031 0.031 9.937 34.656 0.219 0.719h0.75l48.438-0.313h1.406l-0.469-1.344-18.594-52.531-0.031-0.062-5.094-17.875v-0.031006l-8.656-34.938-8.344-32.719-7.374-29.812-0.188-0.75h-0.78101l-32.063-0.344h-1.156l0.156 1.156 2.75 19.875h-43.281l2.75-19.875 0.156-1.156h-1.156zm-31.281 1.969l30.156 0.031-2.656 19.031h-32.125l4.625-19.062zm102.34 0l4.624 19.062h-32.124l-2.657-19.031 30.157-0.031zm-107.47 21.062h32.375l-1 7.094h-33.125l1.75-7.094zm34.375 0h43.844l0.968 7.094h-45.781l0.969-7.094zm45.844 0h32.374l1.75 7.094h-33.124l-1-7.094zm-82.469 9.094h33.343l-4.968 31.594-6.094 35.906-6.375 35.188-0.031 0.093-9.688 33.813-46.281-0.313 18.125-51.281v-0.031006l0.031-0.031 5.125-17.938v-0.031006l8.656-34.969 8.157-32zm83.75 0h33.343l8.157 32 8.656 34.969v0.031006l5.125 17.937 0.031 0.032v0.031006l18.125 51.281-46.281 0.313-9.688-33.813-0.031-0.094-6.375-35.187-6.093-35.906-4.969-31.594z"/>
   <rect x="383.34" y="31.806" width="1.7525" height="45.566"/>
   <rect x="467.31" y="834.18" width=".72578" height="23.337"/>
   <rect x="470.05" y="834.13" width=".72578" height="23.337"/>
   <rect x="491.51" y="834.18" width=".72578" height="23.337"/>
   <path d="m378 907.81c-2.5525 0.15686-7.8737 0.51453-11.781 1.0938-5.4909 0.8139-11.029 1.7468-16.406 3.375-5.4889 1.662-10.754 3.9412-15.875 6.4062-5.3403 2.5708-10.533 5.5174-15.5 8.75-3.9226 2.5529-7.6412 5.3846-11.219 8.375-3.7935 3.1708-7.4963 6.4962-10.875 10.156-4.0117 4.3458-7.7709 8.9691-11.062 13.906-3.6166 5.4246-6.7904 11.187-9.4688 17.125-2.1848 4.8437-3.941 9.886-5.3438 15-1.234 4.4988-2.1962 9.0867-2.6875 13.75-0.37027 3.5145-0.1875 10.219-0.1875 10.219 0.018188 0.5224 0.50876 0.98151 1.0312 0.96521 0.52243-0.015991 0.98331-0.50531 0.96881-1.0278 0 1.22e-4 -0.14618-6.7703 0.1875-9.9374 0.47736-4.5309 1.4134-9.0206 2.625-13.438 1.3779-5.0235 3.1126-9.9802 5.25-14.719 2.6353-5.8426 5.729-11.484 9.2812-16.812 3.2223-4.8332 6.9217-9.405 10.875-13.688 3.295-3.5695 6.9319-6.8295 10.688-9.9688 3.5297-2.9504 7.1901-5.7501 11.031-8.25 4.8956-3.1861 10.019-6.0604 15.281-8.5938 5.074-2.4426 10.223-4.6956 15.562-6.3125 5.2187-1.5802 10.664-2.5031 16.125-3.3125 5.8654-0.92248 11.476-1.2227 17.719-1.2766 6.2429-0.054016 11.9 0.47607 17.812 1.2766 5.4605 0.80939 10.906 1.7323 16.125 3.3125 5.3399 1.6169 10.488 3.8699 15.562 6.3125 5.2625 2.5333 10.386 5.4076 15.281 8.5938 3.8411 2.4999 7.5015 5.2996 11.031 8.25 3.7556 3.1392 7.3925 6.3993 10.688 9.9688 3.9533 4.2825 7.6527 8.8543 10.875 13.688 3.5523 5.3282 6.6459 10.97 9.2812 16.812 2.1374 4.7386 3.8721 9.6952 5.25 14.719 1.2116 4.4169 2.1476 8.9067 2.625 13.438 0.33368 3.1671 0.1875 9.9375 0.1875 9.9374-0.014496 0.52252 0.44638 1.0114 0.96881 1.0278 0.52243 0.015991 1.013-0.44281 1.0312-0.96521 0 0 0.18277-6.7043-0.1875-10.219-0.4913-4.6633-1.4535-9.2512-2.6875-13.75-1.4027-5.114-3.159-10.156-5.3438-15-2.6783-5.9378-5.8522-11.7-9.4688-17.125-3.2916-4.9371-7.0508-9.5605-11.062-13.906-3.3787-3.6601-7.0815-6.9854-10.875-10.156-3.5775-2.9904-7.2961-5.8221-11.219-8.375-4.9671-3.2326-10.16-6.1792-15.5-8.75-5.1205-2.465-10.386-4.7443-15.875-6.4062-5.3774-1.6282-10.915-2.5611-16.406-3.375-3.9076-0.57922-7.8573-0.91577-11.781-1.0938-2.2605-0.19373-4.1171-0.12811-6.25-0.17126-2.1656-0.051453-3.7287 0.014404-6.2812 0.17126z" stroke-linejoin="bevel"/>
   <path d="m502.14 1027.4l2.8859-5.5294 65.767 0.3038 4.4047 5.2256h-73.058z"/>
   <path d="m481.56 873.69l-1.031 1.062 12.125 12.156 1.063-1.062-12.157-12.156zm-84.812 0.093l-1.062 1.063 24.374 24.062 1.063-1.062-24.375-24.063zm36.75 0l-1.062 1.063 23.906 24.062 1.062-1.062-23.906-24.063zm11.812 0.063l-1.062 1.062 24.219 24 1.062-1.062-24.219-24zm12.094 0l-1.031 1.062 24.187 24 1.063-1.062-24.219-24zm12.125 0l-1.062 1.062 24.187 24 1.063-1.062-24.188-24zm-60.531 0.062l-1.062 1.063 24.218 23.937 1.063-1.062-24.219-23.938zm72.781-0.062l-1.062 1.062 24.062 23.938 1.063-1.063-24.063-23.937zm-36.625 0.218l-1.062 1.063 24.406 23.719-59.5-1.032-24.375-23.687 60.531-0.063zm0.188 11.688l-1.063 1.094 12.188 11.875 1.031-1.063-12.156-11.906z"/>
   <path d="m395.72 873.69l1.0312 1.0625-12.125 12.156-1.0625-1.0625 12.156-12.156zm84.812 0.093689l1.0625 1.0625-24.375 24.062-1.0625-1.0625 24.375-24.062zm-36.75 0l1.0625 1.0625-23.906 24.062-1.0625-1.0625 23.906-24.062v-6.1e-5zm-11.812 0.0625l1.0625 1.0625-24.219 24-1.0625-1.0625 24.219-24zm-12.094 0l1.0312 1.0625-24.188 24-1.0625-1.0625 24.219-24zm-12.125 0l1.0625 1.0625-24.188 24-1.0625-1.0625 24.188-24zm60.531 0.0625l1.0625 1.0625-24.219 23.938-1.0625-1.0625 24.219-23.938zm-12.25 0l1.0625 1.0625-24.062 23.938-1.0625-1.0625 24.062-23.938zm35.129 1.3411l1.3119 1.1872-23.159 22.472-1.0312-1.0938 22.879-22.565zm1.3089 10.565l1.0625 1.0938-12.188 11.875-1.0312-1.0625 12.156-11.906z"/>
   <path d="m457.5 897.88l-1.031 1.063 12 11.968 1.062-1.062-12.031-11.969zm6.062 0l-1.062 1.063 12 11.968 1.062-1.062-12-11.969zm5.907 0l-1.063 1.063 12.188 12 1.062-1.094-12.187-11.969zm6.031 0l-1.031 1.063 12.187 12 1.032-1.094-12.188-11.969zm18.25 0l-1.062 1.063 12.093 12 1.031-1.063-12.062-12zm-12.156 0.125l-1.032 1.062 12.157 11.813 1.031-1.063-12.156-11.812zm18.218-0.125l-1.062 1.063 12.156 11.812 1.063-1.062-24.313-11.688 12.156-0.125z"/>
   <path d="m468.53 897.88l-9 8.969c0.040009 0.039978 0.093994 0.078003 0.125 0.125 0.020996 0.031006 0.014984 0.059998 0.031006 0.093018 0 0.016968-0.008026 0.047974 0 0.062988 0.022003 0.041992 0.10397 0.051025 0.125 0.093994 0.007996 0.015015-0.008026 0.015991 0 0.031006 0.022003 0.041992 0.078979 0.080017 0.093994 0.125 0.010986 0.031982-0.01001 0.062012 0 0.093994 0.006989 0.022034 0.020996 0.01001 0.031006 0.031006 0.007996 0.015015-0.008026 0.046997 0 0.062012 0.010986 0.021973 0.052002 0.041016 0.062988 0.062988 0.018005 0.036987 0.005005 0.028015 0 0.031006-0.018005-0.013977-0.020996-0.020996 0.062012 0.062012 0.014984 0.031006-0.015015 0.063965 0 0.093994 0.010986 0.020996 0.020996 0.041016 0.031982 0.062988 0.015015 0.031006-0.015991 0.15503 0 0.18701 0.01001 0.020996 0.050995 0.041016 0.062012 0.062988 0.019989 0.039978-0.02002 0.11603 0 0.15601l9.438-9.344-1.063-1.062zm18.25 0l-12.187 11.969 1.031 1.094 12.187-12-1.031-1.063zm6.031 0l-12.187 11.969 1.063 1.094 12.187-12-1.063-1.063zm5.907 0l-12 11.969 1.062 1.062 12-11.968-1.062-1.063zm-24.094 0.125l-12.156 11.812 1.062 1.063 12.157-11.813-1.063-1.062zm30.156-0.125l-12.156 11.813 1.031 1.062 12.156-11.812-25.124-0.938 24.093-0.125zm21.75 2.219l-9.687 9.625 1.062 1.062-14.656-9.281c0.002014-0.008972 0.003998-0.023987 0-0.031006-0.020996-0.042969-0.072998-0.050964-0.093994-0.093994-0.007996-0.015015 0.007996-0.046997 0-0.062012-0.013-0.026978-0.129-0.13-0.15601-0.15698l-0.062-0.031c-0.016998-0.017029-0.052002-0.041016-0.062988-0.062012-0.007996-0.015015 0.007996-0.047974 0-0.062988-0.020996-0.041992-0.066986-0.054016-0.093994-0.093994-0.02002-0.031006-0.014008-0.059998-0.031006-0.093018 0-0.016968 0.007996-0.047974 0-0.062988-0.01001-0.020996-0.052002-0.01001-0.062012-0.031006-0.007996-0.015015 0.008026-0.046997 0-0.062012-0.010986-0.021973-0.052002-0.041992-0.062988-0.062988-0.007996-0.015015 0.007996-0.015991 0-0.031006-0.01001-0.020996-0.019989-0.041016-0.031006-0.062988-0.027008-0.052979 0.027008-0.039978 0-0.093018-0.010986-0.021973-0.052002-0.041992-0.062988-0.062988-0.007996-0.015015 0.011993-0.018982 0-0.031006-0.011017-0.011963-0.019012 0.012024-0.031006 0-0.011993-0.011963 0.007996-0.047974 0-0.062988-0.01001-0.020996-0.052002-0.01001-0.062012-0.031006l24.093-0.125z"/>
   <path d="m461.22 909.62v1.5l46.75 0.0625v-1.5l-46.75-0.0625z"/>
   <g transform="matrix(-1 0 0 1 695.92 0)">
    <rect x="394.71" y="834.18" width=".72578" height="23.337"/>
    <rect x="397.45" y="834.13" width=".72578" height="23.337"/>
   </g>
   <rect transform="scale(-1 1)" x="-277.01" y="834.18" width=".72578" height="23.337"/>
   <g transform="matrix(-1 0 0 1 768.52 0)">
    <rect x="394.71" y="834.18" width=".72578" height="23.337"/>
    <rect x="397.45" y="834.13" width=".72578" height="23.337"/>
   </g>
   <g transform="matrix(-1 0 0 1 720.12 0)">
    <rect x="394.71" y="834.18" width=".72578" height="23.337"/>
    <rect x="397.45" y="834.13" width=".72578" height="23.337"/>
   </g>
   <path d="m369.44 168.47v0.71901l-1.938 71.968v0.030991l-1.875 43.063-2.156 46.281-2.657 52.906-2.937 59.782v0.031006l-2.063 31.406-2.281 30.969-2.25 32.969-2.687 32.781-3.532 33.625v0.031006l-4.75 34v0.031006l-5.343 36.032-0.157 0.843 0.876 0.032 31.124 0.312h0.62598l0.124-0.625 5.813-36.219 0.031-0.031 4.844-50.812v-0.031982l2.75-50.625v-0.031006l3.25-89.031 3.281 89.031v0.031006l2.75 50.625v0.031982l4.844 50.812 0.031 0.031 5.813 36.219 0.125 0.625h0.625l31.125-0.312 0.875-0.032-0.157-0.843-5.343-36.032v-0.031006l-4.75-34v-0.031006l-3.531-33.625-2.688-32.781-2.25-32.969-2.281-30.969-2.063-31.406v-0.031006l-2.937-59.781-2.657-52.907-2.156-46.281-1.875-43.062v-0.031998l-1.937-71.968v-0.71901h-0.75l-13.344 0.125h-1.469l-13.343-0.125h-0.75zm1.468 1.5l12.594 0.125v24.156h-13.25l0.656-24.281zm26.719 0l0.656 24.281h-13.25v-24.156l12.594-0.125zm-27.406 25.906h13.281v5.219h-13.438l0.157-5.219zm14.812 0h13.281l0.157 5.219h-13.438v-5.219zm-15 7.156h13.469v225.81l-4 109-2.75 50.593v0.031982l-4.844 50.718v0.062988l-5.75 35.531-29.594-0.312 5.25-35.188v-0.031006l4.719-34.031h0.031006v-0.031006l3.5-33.657 0.032-0.031 2.687-32.781v-0.031006l2.25-32.969 2.281-30.938v-0.031006l2.063-31.406v-0.031006l2.937-59.782 2.657-52.937 2.156-46.281 1.875-43.094 1.031-38.188zm15 0h13.469l1.031 38.188 1.875 43.093 2.156 46.282 2.657 52.937 2.937 59.781v0.031982l2.063 31.406v0.031006l2.281 30.938 2.25 32.968v0.031982l2.688 32.781 0.031 0.031 3.5 33.656v0.031982h0.031006l4.719 34.031v0.031006l5.25 35.187-29.594 0.313-5.75-35.531v-0.062988l-4.844-50.719v-0.031006l-2.75-50.593-4-109v-225.81z"/>
   <path d="m497.56 1022l4.6508-0.04m-4.3301-3.1673h4.0895m-5.4987 8.5581h6.8239l-1.0939-1.4033-0.0401-3.9882s1.1858-0.30939 1.3608-0.66656c0.17496-0.35724 0.22662-1.6226 0-1.9221-0.22662-0.29962-1.5876-0.58771-1.5876-0.58771s0.25641-2.1337-0.24057-2.7067c-0.49698-0.57306-1.347-0.46735-1.347-0.46735h-0.92709s-0.85007-0.10571-1.347 0.46735c-0.49698 0.573-0.24054 2.7067-0.24054 2.7067s-1.361 0.28809-1.5876 0.58771c-0.22665 0.2995-0.17496 1.5649 0 1.9221 0.17493 0.35718 1.3608 0.66656 1.3608 0.66656l-0.0401 3.9882-1.0939 1.4033z"/>
   <path d="m272.16 857.19l1.813 3.874 1.156 4.532 0.563 7.937h217.15l0.562-7.937 1.125-4.532 1.813-3.874h-112.06l-0.031 3.281v-3.281h-112.09z"/>
   <rect x="394.71" y="834.18" width=".72578" height="23.337"/>
   <rect x="397.45" y="834.13" width=".72578" height="23.337"/>
   <rect x="443.11" y="834.18" width=".72578" height="23.337"/>
   <rect x="445.85" y="834.13" width=".72578" height="23.337"/>
   <rect x="418.91" y="834.18" width=".72578" height="23.337"/>
   <rect x="421.65" y="834.13" width=".72578" height="23.337"/>
   <path d="m271.25 856.09v1.5h226.03v-1.5h-226.03z"/>
   <path d="m493.27 867.98l-109.11-0.0448"/>
   <path d="m383.26 857.63l0.0312 15.873h2l-0.0312-15.873h-2z"/>
   <rect x="382.76" y="867.37" width="3.0446" height="1.2537" rx=".53729" ry=".53729"/>
   <rect x="382.79" y="858.78" width="2.9551" height="2.1491" rx=".53729" ry=".53729"/>
   <rect x="383.25" y="857.64" width="2.0148" height="4.5222" rx=".53729" ry=".53729"/>
   <rect x="383.62" y="857.63" width="1.2984" height="4.0296" rx=".53729" ry=".53729"/>
   <path d="m383.3 857.63l0.0312 15.873h2l-0.0312-15.873h-2z"/>
   <rect x="382.8" y="867.37" width="3.0446" height="1.2537" rx=".53729" ry=".53729"/>
   <rect x="382.83" y="858.78" width="2.9551" height="2.1491" rx=".53729" ry=".53729"/>
   <rect x="383.29" y="857.64" width="2.0148" height="4.5222" rx=".53729" ry=".53729"/>
   <rect x="383.66" y="857.63" width="1.2984" height="4.0296" rx=".53729" ry=".53729"/>
   <path d="m395.4 857.63l0.0312 15.873h2l-0.0312-15.873h-2z"/>
   <rect x="394.9" y="867.37" width="3.0446" height="1.2537" rx=".53729" ry=".53729"/>
   <rect x="394.93" y="858.78" width="2.9551" height="2.1491" rx=".53729" ry=".53729"/>
   <rect x="395.39" y="857.64" width="2.0148" height="4.5222" rx=".53729" ry=".53729"/>
   <rect x="395.76" y="857.63" width="1.2984" height="4.0296" rx=".53729" ry=".53729"/>
   <path d="m407.5 857.63l0.0312 15.873h2l-0.0312-15.873h-2z"/>
   <rect x="407" y="867.37" width="3.0446" height="1.2537" rx=".53729" ry=".53729"/>
   <rect x="407.03" y="858.78" width="2.9551" height="2.1491" rx=".53729" ry=".53729"/>
   <rect x="407.49" y="857.64" width="2.0148" height="4.5222" rx=".53729" ry=".53729"/>
   <rect x="407.86" y="857.63" width="1.2984" height="4.0296" rx=".53729" ry=".53729"/>
   <path d="m419.6 857.63l0.0312 15.873h2l-0.0312-15.873h-2z"/>
   <rect x="419.1" y="867.37" width="3.0446" height="1.2537" rx=".53729" ry=".53729"/>
   <rect x="419.13" y="858.78" width="2.9551" height="2.1491" rx=".53729" ry=".53729"/>
   <rect x="419.59" y="857.64" width="2.0148" height="4.5222" rx=".53729" ry=".53729"/>
   <rect x="419.96" y="857.63" width="1.2984" height="4.0296" rx=".53729" ry=".53729"/>
   <path d="m431.7 857.63l0.0312 15.873h2l-0.0312-15.873h-2z"/>
   <rect x="431.2" y="867.37" width="3.0446" height="1.2537" rx=".53729" ry=".53729"/>
   <rect x="431.23" y="858.78" width="2.9551" height="2.1491" rx=".53729" ry=".53729"/>
   <rect x="431.69" y="857.64" width="2.0148" height="4.5222" rx=".53729" ry=".53729"/>
   <rect x="432.06" y="857.63" width="1.2984" height="4.0296" rx=".53729" ry=".53729"/>
   <path d="m443.8 857.63l0.0312 15.873h2l-0.0312-15.873h-2z"/>
   <rect x="443.3" y="867.37" width="3.0446" height="1.2537" rx=".53729" ry=".53729"/>
   <rect x="443.33" y="858.78" width="2.9551" height="2.1491" rx=".53729" ry=".53729"/>
   <rect x="443.79" y="857.64" width="2.0148" height="4.5222" rx=".53729" ry=".53729"/>
   <rect x="444.16" y="857.63" width="1.2984" height="4.0296" rx=".53729" ry=".53729"/>
   <path d="m455.9 857.63l0.0312 15.873h2l-0.0312-15.873h-2z"/>
   <rect x="455.4" y="867.37" width="3.0446" height="1.2537" rx=".53729" ry=".53729"/>
   <rect x="455.43" y="858.78" width="2.9551" height="2.1491" rx=".53729" ry=".53729"/>
   <rect x="455.89" y="857.64" width="2.0148" height="4.5222" rx=".53729" ry=".53729"/>
   <rect x="456.26" y="857.63" width="1.2984" height="4.0296" rx=".53729" ry=".53729"/>
   <path d="m468 857.63l0.0312 15.873h2l-0.0312-15.873h-2z"/>
   <rect x="467.5" y="867.37" width="3.0446" height="1.2537" rx=".53729" ry=".53729"/>
   <rect x="467.53" y="858.78" width="2.9551" height="2.1491" rx=".53729" ry=".53729"/>
   <rect x="467.99" y="857.64" width="2.0148" height="4.5222" rx=".53729" ry=".53729"/>
   <rect x="468.36" y="857.63" width="1.2984" height="4.0296" rx=".53729" ry=".53729"/>
   <path d="m480.1 857.63l0.0312 15.873h2l-0.0312-15.873h-2z"/>
   <rect x="479.6" y="867.37" width="3.0446" height="1.2537" rx=".53729" ry=".53729"/>
   <rect x="479.63" y="858.78" width="2.9551" height="2.1491" rx=".53729" ry=".53729"/>
   <rect x="480.09" y="857.64" width="2.0148" height="4.5222" rx=".53729" ry=".53729"/>
   <rect x="480.46" y="857.63" width="1.2984" height="4.0296" rx=".53729" ry=".53729"/>
   <g transform="matrix(-1 0 0 1 744.32 0)">
    <rect x="394.71" y="834.18" width=".72578" height="23.337"/>
    <rect x="397.45" y="834.13" width=".72578" height="23.337"/>
   </g>
   <path d="m275.91 832.56v2.5938h216.73v-2.5938h-216.73z"/>
  </g>
  <path d="m276.09 850.97v5.1562h216.31v-5.1562h-216.31z" fill-opacity=".502" stroke-width=".358"/>
  <g stroke-width=".3">
   <path d="m383.53 670.19l-59.656 0.125 0.125 2.2188h1.5312c3.7702 0.69403 5.2921 7.9841 5.5 16.281h106.47c0.20789-8.2972 1.7298-15.587 5.5-16.281h1.5312l0.125-2.2188-59.656-0.125h-1.4688z"/>
   <path d="m443.74 672.58h-60.329"/>
  </g>
  <g stroke-width=".291">
   <rect x="423.07" y="672.69" width="1.597" height="15.999"/>
   <rect x="413.18" y="672.69" width="1.597" height="15.999"/>
   <rect x="403.29" y="672.69" width="1.597" height="15.999"/>
   <rect x="393.41" y="672.69" width="1.597" height="15.999"/>
   <rect x="383.52" y="672.69" width="1.597" height="15.999"/>
   <rect x="432.96" y="672.69" width="1.597" height="15.999"/>
  </g>
  <g stroke-width=".3">
   <path d="m324.78 664.97v5.2188h118.97v-5.2188h-118.97z" fill-opacity=".502"/>
   <path d="m570.58 1022.2l1.2745-1.7765-10.018-6.2737h-52.249l-5.9105 6.2208 1.466 1.717 65.437 0.1124z"/>
   <path d="m385.15 116.7s3.809 0.73701 6.716 2.965c5.838 4.976 7.264 8.773 9.347 14.021 1.332 3.661 2.092 7.917 2.092 7.917l-4.379-0.106s-1.502-5.707-2.502-8.24-3.444-6.834-5.936-9.446-5.393-3.228-5.393-3.228l0.055-3.883z"/>
   <path d="m365.09 141.16v21.844h38.344v-21.844h-38.344z"/>
   <rect x="382.28" y="75.503" width="3.9724" height="45.566"/>
   <rect x="382.99" y="117.21" width="2.5704" height="26.989"/>
   <rect x="388.13" y="32.274" width=".58418" height="3.3882"/>
   <rect x="379.48" y="34.844" width="9.6973" height="1.8694"/>
   <rect x="401.8" y="134.5" width="4.9071" height="8.0616"/>
  </g>
  <g stroke-width=".298">
   <rect x="390.54" y="170.66" width="1.6472" height="25.088"/>
   <rect x="383.41" y="170.66" width="1.6472" height="25.088"/>
   <rect x="397.94" y="170.8" width="1.6472" height="25.088"/>
   <path d="m399.59 170.66l9.3236 0.1371s-2.4016 1.011-5.209 6.582c-2.8075 5.571-4.1146 18.369-4.1146 18.369v-25.088z"/>
  </g>
  <g stroke-width=".3">
   <rect transform="scale(-1 1)" x="-385.19" y="31.806" width="1.7525" height="45.566"/>
   <path d="m266.39 1027.4l-2.8859-5.5294-65.767 0.3038-4.4047 5.2256h73.058z"/>
   <path d="m286.96 873.69l1.032 1.062-12.125 12.156-1.063-1.062 12.156-12.156zm84.813 0.093l1.062 1.063-24.375 24.062-1.062-1.062 24.375-24.063zm-36.75 0l1.062 1.063-23.906 24.062-1.062-1.062 23.906-24.063zm-11.813 0.063l1.063 1.062-24.219 24-1.062-1.062 24.218-24zm-12.093 0l1.031 1.062-24.188 24-1.062-1.062 24.219-24zm-12.125 0l1.062 1.062-24.187 24-1.063-1.062 24.188-24zm60.531 0.062l1.062 1.063-24.218 23.937-1.063-1.062 24.219-23.938zm-12.25 0l1.062 1.063-24.062 23.937-1.063-1.062 24.063-23.938zm36.625 0.219l1.062 1.062-24.406 23.719-1.031-1.094 24.375-23.687zm-0.188 11.687l1.063 1.094-12.188 11.875-1.031-1.062 12.156-11.907z"/>
   <path d="m372.81 873.69l-1.031 1.062 12.125 12.156 1.062-1.062-12.156-12.156zm-84.812 0.093l-1.063 1.063 24.375 24.062 1.063-1.062-24.375-24.063zm36.75 0l-1.063 1.063 23.906 24.062 1.063-1.062-23.906-24.063zm11.812 0.063l-1.062 1.062 24.218 24 1.063-1.062-24.219-24zm12.094 0l-1.031 1.062 24.187 24 1.063-1.062-24.219-24zm12.125 0l-1.063 1.062 24.188 24 1.062-1.062-24.187-24zm-60.531 0.062l-1.063 1.063 24.219 23.937 1.062-1.062-24.218-23.938zm12.25 0l-1.063 1.063 24.063 23.937 1.062-1.062-24.062-23.938zm-36.625 0.219l-1.063 1.062 24.406 23.719 1.032-1.094-24.375-23.687zm0.187 11.687l-1.062 1.094 12.187 11.875 1.031-1.062-12.156-11.907z"/>
   <path d="m311.02 897.88l1.0312 1.0625-12 11.969-1.0625-1.0625 12.031-11.969zm-6.0625 0l1.0625 1.0625-12 11.969-1.0625-1.0625 12-11.969zm-5.9062 0l1.0625 1.0625-12.188 12-1.0625-1.0938 12.188-11.969zm-6.0312 0l1.0312 1.0625-12.188 12-1.0312-1.0938 12.188-11.969zm-18.25 0l1.0625 1.0625-12.094 12-1.0312-1.0625 12.062-12zm12.156 0.125l1.0312 1.0625-12.156 11.812-1.0312-1.0625 12.156-11.812zm-6.0625 0l1.0625 1.0625-12.156 11.812-1.0625-1.0625 12.156-11.812z"/>
   <path d="m371.19 874.22l-0.032 24.156h2l0.032-24.156h-2zm24.156 0l0.031 24.156h2l-0.031-24.156h-2zm-84.719 0.093l0.031 24.063h2l-0.031-24.063h-2zm13.906 0l-2 0.032 0.219 24.031 2-0.031-0.219-24.032zm119.47 0l-0.219 24.032 2 0.031 0.219-24.031-2-0.032zm11.906 0l-0.031 24.063h2l0.031-24.063h-2zm-169.66 0.125l0.188 23.938 2-0.031-0.188-23.906h-2v-9.77e-4zm12.25 0l0.031 23.938h2l-0.031-23.938h-2zm36.062 0l0.282 23.938 2-0.031-0.282-23.906h-2v-9.77e-4zm12.25 0l0.126 23.938 2-0.031-0.126-23.906h-2v-9.77e-4zm12.126 0l0.093 23.938 2-0.031-0.093-23.906h-2v-9.77e-4zm24.156 0l0.156 23.938 1-0.031 1.031 0.031 0.157-23.938h-2.344zm24.5 0l-0.094 23.907 2 0.031 0.094-23.938h-2zm12.125 0l-0.125 23.907 2 0.031 0.125-23.938h-2zm12.25 0l-0.281 23.907 2 0.031 0.281-23.938h-2zm36.062 0l-0.031 23.938h2l0.031-23.938h-2zm12.25 0l-0.187 23.907 2 0.031 0.187-23.938h-2zm-205.94 7.938v16h2v-16h-2zm217.84 0v16h2v-16h-2z"/>
   <path d="m299.99 897.88l9 8.969c-0.039978 0.039978-0.093994 0.078003-0.125 0.125-0.020996 0.031006-0.014984 0.059998-0.031982 0.093018 0 0.016968 0.007996 0.047974 0 0.062988-0.020996 0.041992-0.103 0.051025-0.125 0.093994-0.007996 0.015015 0.007996 0.015991 0 0.031006-0.020996 0.041992-0.078003 0.080017-0.093018 0.125-0.010986 0.031982 0.01001 0.062012 0 0.093994-0.006989 0.022034-0.020996 0.01001-0.031982 0.031006-0.007996 0.015015 0.007996 0.046997 0 0.062012-0.01001 0.021973-0.050995 0.041016-0.062012 0.062988-0.018982 0.036987-0.005005 0.028015 0 0.031006 0.018005-0.013977 0.020996-0.020996-0.062988 0.062012-0.015015 0.031006 0.014984 0.063965 0 0.093994-0.01001 0.020996-0.02002 0.041016-0.031006 0.062988-0.015991 0.031006 0.015991 0.15503 0 0.18701-0.01001 0.020996-0.052002 0.041016-0.062012 0.062988-0.019989 0.039978 0.02002 0.11603 0 0.15601l-9.438-9.344 1.063-1.062zm-18.25 0l12.187 11.969-1.031 1.094-12.188-12 1.032-1.063zm-6.032 0l12.188 11.969-1.063 1.094-12.187-12 1.062-1.063zm-5.906 0l12 11.969-1.062 1.062-12-11.968 1.062-1.063zm24.094 0.125l12.156 11.812-1.062 1.063-12.157-11.813 1.063-1.062zm-6.063 0l12.157 11.812-1.032 1.063-12.156-11.813 1.031-1.062zm-21.75 2.219l9.688 9.625-1.063 1.062-9.437-9.406c-0.001984-0.008972-0.003998-0.023987 0-0.031006 0.020996-0.042969 0.071991-0.050964 0.093994-0.093994 0.008026-0.015015-0.007996-0.046997 0-0.062012 0.013-0.026978 0.129-0.13 0.15601-0.15698l0.062-0.031c0.016998-0.017029 0.052002-0.041016 0.062988-0.062012 0.007996-0.015015-0.007996-0.047974 0-0.062988 0.020996-0.041992 0.067017-0.054016 0.093018-0.093994 0.020996-0.031006 0.014984-0.059998 0.031982-0.093018 0-0.016968-0.007996-0.047974 0-0.062988 0.01001-0.020996 0.052002-0.01001 0.062012-0.031006 0.007996-0.015015-0.007996-0.046997 0-0.062012 0.010986-0.021973 0.052002-0.041992 0.062988-0.062988 0.007996-0.015015-0.007996-0.015991 0-0.031006 0.01001-0.020996 0.02002-0.041016 0.031006-0.062988 0.027008-0.052979-0.027008-0.039978 0-0.093018 0.01001-0.021973 0.052002-0.041992 0.062012-0.062988 0.007996-0.015015-0.012024-0.018982 0-0.031006 0.011993-0.011963 0.019989 0.012024 0.031982 0 0.011017-0.011963-0.007996-0.047974 0-0.062988 0.01001-0.020996 0.050995-0.01001 0.062012-0.031006z"/>
   <path d="m307.31 909.62v1.5l-46.75 0.0625v-1.5l46.75-0.0625z"/>
   <path d="m325.02 873.47l1.3438 2.1562-67.75 137.91-0.3414 0.924-50.638-0.1197 1.8236-1.8355 67.438-138.19 1.3438-0.8438h46.781zm-2.4062 3h-43.438l-65.969 135.19 43.125-0.2812 66.281-134.91z"/>
   <path d="m270.97 1022l-4.6508-0.04m4.3301-3.1673h-4.0895m5.4987 8.5581h-6.824l1.0939-1.4033 0.0401-3.9882s-1.1858-0.30939-1.3608-0.66656c-0.17496-0.35724-0.22662-1.6226 0-1.9221 0.22662-0.29962 1.5876-0.58771 1.5876-0.58771s-0.25641-2.1337 0.24057-2.7067c0.49698-0.57306 1.347-0.46735 1.347-0.46735h0.92709s0.85007-0.10571 1.347 0.46735c0.49698 0.573 0.24054 2.7067 0.24054 2.7067s1.361 0.28809 1.5876 0.58771c0.22665 0.2995 0.17496 1.5649 0 1.9221-0.17493 0.35718-1.3608 0.66656-1.3608 0.66656l0.0401 3.9882 1.0939 1.4033z"/>
   <path d="m275.25 867.98l109.11-0.0448"/>
   <g transform="matrix(-1 0 0 1 780.62 .016184)">
    <path d="m395.36 857.62l0.0312 15.873h2l-0.0312-15.873h-2z"/>
    <rect x="394.86" y="867.36" width="3.0446" height="1.2537" rx=".53729" ry=".53729"/>
    <rect x="394.89" y="858.76" width="2.9551" height="2.1491" rx=".53729" ry=".53729"/>
    <rect x="395.35" y="857.62" width="2.0148" height="4.5222" rx=".53729" ry=".53729"/>
    <rect x="395.72" y="857.61" width="1.2984" height="4.0296" rx=".53729" ry=".53729"/>
   </g>
   <g transform="matrix(-1 0 0 1 780.58 .016184)">
    <path d="m395.36 857.62l0.0312 15.873h2l-0.0312-15.873h-2z"/>
    <rect x="394.86" y="867.36" width="3.0446" height="1.2537" rx=".53729" ry=".53729"/>
    <rect x="394.89" y="858.76" width="2.9551" height="2.1491" rx=".53729" ry=".53729"/>
    <rect x="395.35" y="857.62" width="2.0148" height="4.5222" rx=".53729" ry=".53729"/>
    <rect x="395.72" y="857.61" width="1.2984" height="4.0296" rx=".53729" ry=".53729"/>
   </g>
   <g transform="matrix(-1 0 0 1 768.48 .016184)">
    <path d="m395.36 857.62l0.0312 15.873h2l-0.0312-15.873h-2z"/>
    <rect x="394.86" y="867.36" width="3.0446" height="1.2537" rx=".53729" ry=".53729"/>
    <rect x="394.89" y="858.76" width="2.9551" height="2.1491" rx=".53729" ry=".53729"/>
    <rect x="395.35" y="857.62" width="2.0148" height="4.5222" rx=".53729" ry=".53729"/>
    <rect x="395.72" y="857.61" width="1.2984" height="4.0296" rx=".53729" ry=".53729"/>
   </g>
   <g transform="matrix(-1 0 0 1 756.38 .016184)">
    <path d="m395.36 857.62l0.0312 15.873h2l-0.0312-15.873h-2z"/>
    <rect x="394.86" y="867.36" width="3.0446" height="1.2537" rx=".53729" ry=".53729"/>
    <rect x="394.89" y="858.76" width="2.9551" height="2.1491" rx=".53729" ry=".53729"/>
    <rect x="395.35" y="857.62" width="2.0148" height="4.5222" rx=".53729" ry=".53729"/>
    <rect x="395.72" y="857.61" width="1.2984" height="4.0296" rx=".53729" ry=".53729"/>
   </g>
   <g transform="matrix(-1 0 0 1 744.28 .016184)">
    <path d="m395.36 857.62l0.0312 15.873h2l-0.0312-15.873h-2z"/>
    <rect x="394.86" y="867.36" width="3.0446" height="1.2537" rx=".53729" ry=".53729"/>
    <rect x="394.89" y="858.76" width="2.9551" height="2.1491" rx=".53729" ry=".53729"/>
    <rect x="395.35" y="857.62" width="2.0148" height="4.5222" rx=".53729" ry=".53729"/>
    <rect x="395.72" y="857.61" width="1.2984" height="4.0296" rx=".53729" ry=".53729"/>
   </g>
   <g transform="matrix(-1 0 0 1 732.18 .016184)">
    <path d="m395.36 857.62l0.0312 15.873h2l-0.0312-15.873h-2z"/>
    <rect x="394.86" y="867.36" width="3.0446" height="1.2537" rx=".53729" ry=".53729"/>
    <rect x="394.89" y="858.76" width="2.9551" height="2.1491" rx=".53729" ry=".53729"/>
    <rect x="395.35" y="857.62" width="2.0148" height="4.5222" rx=".53729" ry=".53729"/>
    <rect x="395.72" y="857.61" width="1.2984" height="4.0296" rx=".53729" ry=".53729"/>
   </g>
   <g transform="matrix(-1 0 0 1 720.08 .016184)">
    <path d="m395.36 857.62l0.0312 15.873h2l-0.0312-15.873h-2z"/>
    <rect x="394.86" y="867.36" width="3.0446" height="1.2537" rx=".53729" ry=".53729"/>
    <rect x="394.89" y="858.76" width="2.9551" height="2.1491" rx=".53729" ry=".53729"/>
    <rect x="395.35" y="857.62" width="2.0148" height="4.5222" rx=".53729" ry=".53729"/>
    <rect x="395.72" y="857.61" width="1.2984" height="4.0296" rx=".53729" ry=".53729"/>
   </g>
   <g transform="matrix(-1 0 0 1 707.98 .016184)">
    <path d="m395.36 857.62l0.0312 15.873h2l-0.0312-15.873h-2z"/>
    <rect x="394.86" y="867.36" width="3.0446" height="1.2537" rx=".53729" ry=".53729"/>
    <rect x="394.89" y="858.76" width="2.9551" height="2.1491" rx=".53729" ry=".53729"/>
    <rect x="395.35" y="857.62" width="2.0148" height="4.5222" rx=".53729" ry=".53729"/>
    <rect x="395.72" y="857.61" width="1.2984" height="4.0296" rx=".53729" ry=".53729"/>
   </g>
   <g transform="matrix(-1 0 0 1 695.88 .016184)">
    <path d="m395.36 857.62l0.0312 15.873h2l-0.0312-15.873h-2z"/>
    <rect x="394.86" y="867.36" width="3.0446" height="1.2537" rx=".53729" ry=".53729"/>
    <rect x="394.89" y="858.76" width="2.9551" height="2.1491" rx=".53729" ry=".53729"/>
    <rect x="395.35" y="857.62" width="2.0148" height="4.5222" rx=".53729" ry=".53729"/>
    <rect x="395.72" y="857.61" width="1.2984" height="4.0296" rx=".53729" ry=".53729"/>
   </g>
   <g transform="matrix(-1 0 0 1 683.78 .016184)">
    <path d="m395.36 857.62l0.0312 15.873h2l-0.0312-15.873h-2z"/>
    <rect x="394.86" y="867.36" width="3.0446" height="1.2537" rx=".53729" ry=".53729"/>
    <rect x="394.89" y="858.76" width="2.9551" height="2.1491" rx=".53729" ry=".53729"/>
    <rect x="395.35" y="857.62" width="2.0148" height="4.5222" rx=".53729" ry=".53729"/>
    <rect x="395.72" y="857.61" width="1.2984" height="4.0296" rx=".53729" ry=".53729"/>
   </g>
   <path d="m324.79 672.58h60.329"/>
  </g>
  <g stroke-width=".291">
   <rect transform="scale(-1 1)" x="-345.45" y="672.69" width="1.597" height="15.999"/>
   <rect transform="scale(-1 1)" x="-355.34" y="672.69" width="1.597" height="15.999"/>
   <rect transform="scale(-1 1)" x="-365.23" y="672.69" width="1.597" height="15.999"/>
   <rect transform="scale(-1 1)" x="-375.12" y="672.69" width="1.597" height="15.999"/>
   <rect transform="scale(-1 1)" x="-335.56" y="672.69" width="1.597" height="15.999"/>
  </g>
  <g stroke-width=".3">
   <path d="m197.94 1022.2l-1.2745-1.7765 10.018-6.2737h52.249l5.9105 6.2208-1.466 1.717-65.437 0.1124z"/>
   <path d="m383.38 116.7s-3.808 0.73701-6.716 2.965c-5.838 4.976-7.263 8.773-9.346 14.021-1.332 3.661-2.092 7.917-2.092 7.917l4.379-0.106s1.502-5.707 2.502-8.24 3.443-6.834 5.936-9.446c2.492-2.612 5.393-3.228 5.393-3.228l-0.056-3.883z"/>
   <rect x="402.38" y="144.44" width="3.9724" height="9.1131"/>
   <path d="m358.56 155.88v5.8438h51.406v-5.8438h-51.406z" fill-opacity=".502"/>
   <path d="m357.88 161.03v9.6875h52.782v-9.6875h-52.782z"/>
   <rect transform="scale(-1 1)" x="-386.24" y="75.503" width="3.9724" height="45.566"/>
   <rect transform="scale(-1 1)" x="-383.79" y="78.657" width="3.0377" height="8.6458"/>
   <rect transform="scale(-1 1)" x="-383.79" y="89.64" width="3.0377" height="8.6458"/>
   <rect transform="scale(-1 1)" x="-383.79" y="100.62" width="3.0377" height="8.6458"/>
   <rect transform="scale(-1 1)" x="-385.54" y="117.21" width="2.5704" height="26.989"/>
   <rect transform="scale(-1 1)" x="-383.79" y="111.6" width="3.0377" height="8.6458"/>
   <rect transform="scale(-1 1)" x="-380.4" y="32.274" width=".58418" height="3.3882"/>
   <rect transform="scale(-1 1)" x="-389.04" y="34.844" width="9.6973" height="1.8694"/>
   <rect transform="scale(-1 1)" x="-366.14" y="144.44" width="3.9724" height="9.1131"/>
   <rect transform="scale(-1 1)" x="-366.73" y="134.5" width="4.9071" height="8.0616"/>
  </g>
  <g stroke-width=".298">
   <rect transform="scale(-1 1)" x="-377.99" y="170.66" width="1.6472" height="25.088"/>
   <rect transform="scale(-1 1)" x="-385.11" y="170.66" width="1.6472" height="25.088"/>
   <rect transform="scale(-1 1)" x="-370.58" y="170.8" width="1.6472" height="25.088"/>
   <path d="m368.94 170.66l-9.3236 0.1371s2.4016 1.011 5.209 6.582c2.8075 5.571 4.1146 18.369 4.1146 18.369v-25.088z"/>
  </g>
  <g stroke-width=".3">
   <path d="m266.71 897.69l109.06 0.124 8.469-0.062v1.156h-16l-11.157 1.844-0.281-0.594c-0.29901-0.66302-0.97-1.089-1.75-1.281h-2.156c-0.087006 0.02002-0.168 0.038025-0.25 0.062988-1.383 0.42102-2.354 1.936-2.094 2.968l0.156 0.625-1.656 0.438-0.781-1.907c-0.55798-1.171-1.253-1.861-2.031-2.187h-2.5c-0.13699 0.044983-0.271 0.067993-0.40698 0.125-1.848 0.76703-2.001 2.669-1.468 4.031l0.718 1.844-1.656 0.531-1.469-3.594c-1.026-2.56-3.751-2.993-5.281-2.406-1.325 0.50897-2.698 2.934-1.75 5l1.625 3.594-1.656 0.625-3.563-7.75c-0.86902-1.892-3.125-2.104-4.531-1.437-1.341 0.63599-2.355 2.735-1.406 4.562l3.812 7.375-1.781 0.875-4.781-9.5c-1.254-2.489-3.958-2.579-5.469-1.594-1.462 0.95398-2.268 3.252-0.84399 5.656l5.25 8.876-1.5 0.937-2.687-4.281c-1.074-1.702-3.764-2.097-5.188-0.93799-1.423 1.159-1.942 3.229-0.71802 5.094l2.593 3.906-1.437 1.219-0.563-0.875c-0.746-1.124-2.755-1.282-4.25-0.15601-1.494 1.126-1.36 3.225-0.78101 4.031l0.563 0.781-6.375 5.906 0.25-1.093 15.531-31.375-47.813-0.031v-1.125z"/>
   <path d="m501.81 897.69l-109.06 0.124-8.469-0.062v1.156h16l11.157 1.844 0.281-0.594c0.29901-0.66302 0.97-1.089 1.75-1.281h2.156c0.087006 0.02002 0.168 0.038025 0.25 0.062988 1.383 0.42102 2.354 1.936 2.094 2.968l-0.157 0.625 1.657 0.438 0.781-1.907c0.55801-1.171 1.253-1.861 2.031-2.187h2.5c0.13599 0.044983 0.26999 0.067993 0.40601 0.125 1.848 0.76703 2.002 2.669 1.469 4.031l-0.719 1.844 1.657 0.531 1.468-3.594c1.027-2.56 3.752-2.993 5.282-2.406 1.325 0.50897 2.698 2.934 1.75 5l-1.625 3.594 1.656 0.625 3.562-7.75c0.87-1.892 3.126-2.104 4.532-1.437 1.341 0.63599 2.355 2.735 1.406 4.562l-3.813 7.375 1.782 0.875 4.781-9.5c1.254-2.489 3.957-2.579 5.469-1.594 1.462 0.95398 2.267 3.252 0.84302 5.656l-5.25 8.876 1.5 0.937 2.688-4.281c1.074-1.702 3.764-2.097 5.187-0.93799 1.424 1.159 1.943 3.229 0.71899 5.094l-2.594 3.906 1.438 1.219 0.562-0.875c0.74698-1.124 2.756-1.282 4.25-0.15601 1.495 1.126 1.361 3.225 0.78198 4.031l-0.563 0.781 6.375 5.906-0.25-1.093-15.531-31.375 47.812-0.031v-1.125z"/>
   <path d="m384.31 897.47v0.031006c-1.723 0.049011-9.785 0.29797-14.031 0.78101-4.273 0.487-8.536 1.238-12.719 2.156-4.998 1.099-9.936 2.424-14.812 4-4.478 1.448-8.973 3.015-13.281 5.032-4.385 2.052-8.542 4.542-12.594 7.093-3.91 2.463-7.838 5.012-11.437 8.032-4.434 3.72-12 12-12 12l1.468 1.343s7.646-8.316 11.813-11.812c3.47-2.912 7.351-5.42 11.25-7.875 4.026-2.536 8.082-4.974 12.343-6.969 4.187-1.96 8.585-3.499 13.032-4.937 4.808-1.555 9.714-2.852 14.656-3.938 4.133-0.90802 8.314-1.679 12.5-2.156 4.039-0.46002 12.022-0.77502 13.75-0.84399v0.062988s9.293 0.27002 13.781 0.78101c4.186 0.47699 8.367 1.248 12.5 2.156 4.942 1.086 9.848 2.383 14.657 3.938 4.446 1.438 8.845 2.977 13.031 4.937 4.261 1.995 8.317 4.433 12.343 6.969 3.899 2.455 7.78 4.963 11.25 7.875 4.167 3.496 11.813 11.812 11.813 11.812l1.469-1.343s-7.567-8.28-12-12c-3.599-3.02-7.527-5.569-11.438-8.032-4.051-2.551-8.209-5.041-12.594-7.093-4.308-2.017-8.803-3.584-13.281-5.032-4.875-1.576-9.813-2.901-14.812-4-4.182-0.91803-8.446-1.669-12.719-2.156-4.186-0.47601-11.105-0.69501-12.781-0.75v-0.062012s-0.56799 0.028992-0.625 0.031006c-0.046997-9.77e-4 -0.53198-0.031006-0.53198-0.031006z" stroke-linejoin="round"/>
   <path d="m443.5 873.47l-1.3438 2.1562 67.75 137.91 0.3414 0.924 50.638-0.1197-1.8236-1.8355-67.438-138.19-1.3438-0.8438h-46.781zm2.4062 3h43.438l65.969 135.19-43.125-0.2812-66.281-134.91z"/>
   <path d="m384.28 874.5h-109.28v-1.5h218.53v1.5h-109.25z"/>
   <rect x="384.74" y="78.657" width="3.0377" height="8.6458"/>
   <rect x="384.74" y="89.64" width="3.0377" height="8.6458"/>
   <rect x="384.74" y="100.62" width="3.0377" height="8.6458"/>
   <rect x="384.74" y="111.6" width="3.0377" height="8.6458"/>
  </g>
 </g>
</svg>